<svg viewBox="0 0 40 40" xmlns="http://www.w3.org/2000/svg" fill="none">
  <defs>
    <linearGradient id="fGrad" x1="0%" y1="100%" x2="100%" y2="0%">
      <stop offset="0%" style="stop-color:#0D9488"/>
      <stop offset="100%" style="stop-color:#10B981"/>
    </linearGradient>
  </defs>
  <rect width="40" height="40" rx="8" fill="#0a1433"/>
  <!-- L shape -->
  <path d="M6 8 L6 34 L16 34 L16 30 L11 30 L11 8 Z" fill="url(#fGrad)"/>
  <!-- R shape -->
  <path d="M16 8 L16 34 L21 34 L21 24 L24 24 L29 34 L35 34 L29 23 C32 21 34 18 34 14 C34 9 30 8 25 8 Z M21 12 L25 12 C28 12 30 14 30 16 C30 19 28 20 25 20 L21 20 Z" fill="url(#fGrad)"/>
  <!-- Upward arrow -->
  <path d="M28 4 L34 11 L31 11 L31 18 L25 18 L25 11 L22 11 Z" fill="#10B981"/>
</svg>