<svg viewBox="0 0 260 56" xmlns="http://www.w3.org/2000/svg" fill="none">
  <defs>
    <linearGradient id="lrGrad" x1="0%" y1="100%" x2="100%" y2="0%">
      <stop offset="0%" style="stop-color:#0D9488"/>
      <stop offset="100%" style="stop-color:#10B981"/>
    </linearGradient>
  </defs>
  <!-- LR Monogram -->
  <g transform="translate(2, 4)">
    <!-- L shape -->
    <path d="M2 4 L2 44 L18 44 L18 38 L9 38 L9 4 Z" fill="url(#lrGrad)"/>
    <!-- R shape -->
    <path d="M18 4 L18 44 L25 44 L25 28 L30 28 L37 44 L45 44 L37 27 C41 25 44 21 44 16 C44 9 39 4 32 4 Z M25 10 L31 10 C36 10 38 13 38 16 C38 20 36 22 31 22 L25 22 Z" fill="url(#lrGrad)"/>
    <!-- Upward arrow from R -->
    <path d="M36 0 L44 10 L40 10 L40 20 L32 20 L32 10 L28 10 Z" fill="#10B981"/>
  </g>
  <!-- Text: Let -->
  <text x="60" y="24" font-family="Inter, system-ui, sans-serif" font-size="20" font-weight="800" fill="#0a1433" letter-spacing="-0.5">Let</text>
  <!-- Text: Revenue -->
  <text x="60" y="44" font-family="Inter, system-ui, sans-serif" font-size="18" font-weight="700" fill="#0D9488" letter-spacing="-0.3">Revenue</text>
  <!-- Text: Flow -->
  <text x="152" y="44" font-family="Inter, system-ui, sans-serif" font-size="18" font-weight="700" fill="#10B981" letter-spacing="-0.3">Flow</text>
</svg>